# xmcd CD database file
#
# Track frame offsets:
#	150
#	54982
#	86115
#	109558
#	149639
#	188888
#	227489
#
# Disc length: 4136 seconds
#
# Revision: 0
# Processed by: cddbd v1.5.1PL0 Copyright (c) Steve Scherf et al.
# Submitted via: CDex 1.51
#
DISCID=59102607
DTITLE=Jessica Williams - Jazz Impressions of Spain
DYEAR=2001
DGENRE=Jazz
TTITLE0=Barcelona - Black Smile
TTITLE1=Madrid
TTITLE2=El Salvador
TTITLE3=Santander
TTITLE4=Oceania
TTITLE5=Spanish Sky
TTITLE6=Concerto and Meditation
EXTD=YEAR: 2001
EXTT0=
EXTT1=
EXTT2=
EXTT3=
EXTT4=
EXTT5=
EXTT6=
PLAYORDER=
